<svg id="a63bcd58-09d0-4627-aa4f-fd3ef5b9a7bc" data-name="Layer 1" xmlns="http://www.w3.org/2000/svg" width="1610" height="287" viewBox="0 0 1610 287"><path d="M191.53,23,146.32,154.68,99.78,23H15.07V268.42q29.06-3,58.17-5.7L71.32,85.25,124.9,255.74,174,252,220.32,85.25,216,251c19.33-1.47,38.2-2.49,57.57-3.79l3-224.24Z"/><path d="M522.12,99.71c-18.41-46.91-63.9-81.43-122-81.43-54.64,0-105.42,32.14-123.55,86.48a140.74,140.74,0,0,0-7,44.77v.34a120.7,120.7,0,0,0,7,40.33,127.81,127.81,0,0,0,36.54,53.59Q404.7,238,496.87,234.3A126.94,126.94,0,0,0,522,194.53a129.44,129.44,0,0,0,.17-94.82Zm-121,120.14c-42.52,0-68.3-35.49-68.3-73.33v-.33c0-34.83,23.77-72.33,67.63-72.33,45.54,0,67.3,41.19,67.3,73.33C467.75,179,446,219.85,401.12,219.85Z"/><path d="M767.75,104.8c-17-49.48-63.7-86.52-123.88-86.52-52.93,0-102.23,30.16-121.75,81.43a139.39,139.39,0,0,0-8.83,49.82v.34A121.2,121.2,0,0,0,522,194.53a127.66,127.66,0,0,0,23.49,38q99.9-3.39,200.42-4.22A127.24,127.24,0,0,0,767.75,189a129.58,129.58,0,0,0,0-84.2ZM644.87,219.85c-42.52,0-68.3-35.49-68.3-73.33v-.33c0-34.83,23.77-72.33,67.63-72.33,45.54,0,67.3,41.19,67.3,73.33C711.5,179,689.74,219.85,644.87,219.85Z"/><path d="M916.08,23l1.34,151L822.33,23H767.75V228.13q22.37-.13,44.75-.13L828,228l-1-106.61,67.92,107q40.94.41,81.75,1.27V23Z"/><path d="M990,23V78.55h0V229.88c21.12.46,32.21,1,53.28,1.64v-153H1080V23Z"/><path d="M1097.47,23V232.68q31.66,1.08,63.28,2.43V23Z"/><path d="M1355.23,23,1310,182.68,1263.48,23h-84.71V235.5q29,1.25,57.91,2.73l-1.66-153,44.86,155.31q29.17,1.63,58.27,3.5L1384,85.25,1382.27,247q29,2,58,4.25V23Z"/><path d="M1590.24,78.55V23H1460V252c36.88,3.66,83.65,7.75,130.29,12.26V219.16l-77-4V172.64h74.67V117.06h-74.67V78.55Z"/><rect x="870" y="32" width="55" height="37" transform="translate(847 948) rotate(-90)"/></svg>